<?xml version="1.0" standalone="no"?>
<!DOCTYPE svg PUBLIC "-//W3C//DTD SVG 1.0//EN" "http://www.w3.org/TR/2001/REC-SVG-20010904/DTD/svg10.dtd">
<svg xmlns="http://www.w3.org/2000/svg" xmlns:xlink="http://www.w3.org/1999/xlink" id="body_1" width="196" height="108">

<g transform="matrix(0.060104262 0 0 0.05976757 0 0)">
	<g transform="matrix(24.98018 0 0 24.978062 130.43997 130.42885)">
	</g>
    <path transform="matrix(24.98018 0 0 24.978062 130.43997 130.42885)"  d="M120.1 61.9L0 61.9L0 0L120.1 0L120.1 61.9zM0.7 61.2L119.399994 61.2L119.399994 0.7L0.7 0.7z" stroke="none" fill="#0F292F" fill-rule="nonzero" />
	<g transform="matrix(10.202082 0 0 10.201217 303.8298 588.86414)">
	</g>
    <path transform="matrix(10.202082 0 0 10.201217 303.8298 588.86414)"  d="M15.308 24.848C 18.9869 25.56507 21.824 28.5269 21.824 32.2681C 21.824 37.3188 16.710999 40 10.662999 40C 9.3536 40 6.5475993 39.56352 5.019999 39.53235C 2.837599 39.50117 2.182899 39.81294 2.182899 39.81294C 2.182899 39.81294 3.523499 39.12705 3.523499 35.978138L3.523499 35.978138L3.523499 16.149137C 3.523499 13.000237 2.182899 12.345537 2.182899 12.345537C 2.182899 12.345537 2.806439 12.594957 5.019999 12.594957C 6.298299 12.626134 8.418299 12.189657 10.288898 12.189657C 15.713698 12.189657 20.078499 14.247357 20.047298 18.674458C 20.047298 21.636257 18.051998 24.161558 15.308398 24.847458L15.308398 24.847458L15.308 24.848zM8.9166 12.876C 7.1707 13.125421 7.4201 15.120701 7.4201 16.6796L7.4201 16.6796L7.388923 23.382599C 7.388923 24.16202 7.731873 24.723198 8.573624 24.723198L8.573624 24.723198L10.662523 24.723198C 13.904923 24.723198 16.586124 22.665499 16.554924 18.8308C 16.586102 15.5571995 14.279024 12.8137 10.787224 12.8137C 10.288394 12.8137 9.290724 12.8137 8.916624 12.876054zM10.974 39.37646C 14.9023 39.37646 17.7706 35.82226 17.8017 32.081062C 17.8017 27.498062 13.935801 25.284462 10.6934 25.284462L10.6934 25.284462L8.6045 25.284462C 7.7627196 25.284462 7.3886 25.845642 7.3886 26.593863L7.3886 26.593863L7.419777 35.448063C 7.419777 37.443363 7.1703568 39.189262 8.853877 39.313965C 9.227997 39.37632 10.350377 39.37632 10.973877 39.37632zM26.936905 22.229C 25.939245 22.229 25.097506 21.4184 25.097506 20.296C 25.097506 19.1425 25.939285 18.3319 26.936905 18.3319C 27.965706 18.3319 28.807505 19.1425 28.807505 20.296C 28.807505 21.4184 27.965725 22.229 26.936905 22.229zM24.972704 36.1652C 24.972704 39.3452 23.632103 40 23.632103 40C 23.632103 40 24.692102 39.71941 26.905703 39.71941C 29.119303 39.71941 30.179302 40 30.179302 40C 30.179302 40 28.838703 39.34528 28.838703 36.1652L28.838703 36.1652L28.838703 23.2892C 28.090454 24.3804 25.939203 24.9416 23.632202 24.9416C 24.131033 25.09748 24.972801 25.752201 24.972801 28.776402L24.972801 28.776402L24.972801 36.165302zM36.04048 22.229C 35.04282 22.229 34.20108 21.4184 34.20108 20.296C 34.20108 19.1425 35.042862 18.3319 36.04048 18.3319C 37.069283 18.3319 37.911083 19.1425 37.911083 20.296C 37.911083 21.4184 37.0693 22.229 36.04048 22.229zM38.285282 23.289L38.285282 36.321C 38.254105 42.1823 39.81298 50.350998 28.464582 50.350998L28.464582 50.350998L28.682823 49.72746C 28.682823 49.72746 34.419422 51.00576 34.419422 41.71496L34.419422 41.71496L34.419422 28.495958C 34.357067 25.721258 33.54647 25.097658 33.078823 24.94176C 35.38592 24.94176 37.537125 24.380579 38.285324 23.28936zM54.590416 36.9447C 54.590416 39.501198 55.650417 40 55.650417 40C 55.650417 40 55.120407 39.78176 52.56392 39.78176C 50.81802 39.78176 50.069717 40 50.069717 40C 50.069717 40 50.724438 39.50117 50.724438 38.0982C 50.475018 38.87762 48.41734 40 45.892036 40C 43.522636 40 41.184338 38.5035 41.184338 35.8846C 41.184338 32.0187 46.42204 31.395102 48.074436 30.958601C 49.165638 30.67801 50.724438 30.241531 50.724438 29.3686L50.724438 29.3686L50.724438 28.68271C 50.724438 27.59151 50.662083 24.34911 47.26384 24.34911C 45.393238 24.34911 43.49144 25.15971 43.55374 27.092709C 43.58492 28.215109 44.89434 27.653889 45.206142 27.653889C 46.141453 27.653889 46.453243 28.215069 46.453243 28.90099C 46.453243 29.61806 45.923233 30.49099 44.520245 30.49099C 43.803173 30.49099 42.774345 29.89863 42.431343 28.838589C 41.58956 26.157389 43.95904 23.787888 47.637844 23.756788C 51.877945 23.72561 54.590343 25.627388 54.590343 30.148088L54.590343 30.148088L54.590343 36.944687zM50.724415 36.2899L50.724415 30.397503C 50.724415 30.522213 50.069695 30.958683 48.386116 31.519903C 46.390816 32.17462 44.987816 33.078705 44.987816 35.791103C 44.987816 39.812904 50.724415 40.187004 50.724415 36.289932zM72.17443 24.318C 73.26563 24.318 75.01153 24.130941 75.51033 24.06858C 74.94915 24.162111 72.64203 24.66094 71.58203 27.34218C 70.95849 28.93218 69.39963 33.54638 67.74723 38.12918C 66.531334 41.46508 65.31543 44.80108 63.94363 46.952282C 62.54063 49.13468 60.51413 50.537582 58.58123 50.44408C 57.52123 50.381725 56.27413 49.69583 56.27413 48.44878C 56.27413 47.607 56.83531 46.79638 57.80183 46.79638C 59.14243 46.79638 59.04893 48.35518 60.32713 48.35518C 63.13303 48.35518 65.31543 44.14628 65.34663 39.81268C 65.3778 36.69498 63.818928 33.42138 62.758926 31.23898C 61.636528 28.931879 60.514225 26.87418 60.514225 26.87418C 59.797153 25.50238 58.830624 24.41118 58.207127 24.06828C 58.363007 24.099457 59.765926 24.34887 61.761326 24.34887C 63.257828 24.34887 64.691925 24.16181 65.25313 24.06828C 64.41135 24.41123 64.00603 25.28418 64.44253 26.46888L64.44253 26.46888L68.18373 34.63728C 68.18373 34.63728 70.24143 28.99428 70.64673 27.40428C 71.083206 25.65838 69.68025 24.28658 68.71373 24.06838C 68.71373 24.06838 70.74023 24.3178 72.17433 24.3178zM101.51214 39.34528C 106.46924 39.34528 107.685135 33.95168 107.685135 33.82698L107.685135 33.82698L108.65161 39.99998C 108.43337 39.28291 107.34221 38.59698 105.814514 39.1582C 103.94392 39.81292 102.696815 40.03115 101.20032 40.03115C 93.25021 40.03115 87.66932 34.35695 87.66932 26.31315C 87.66932 18.269352 93.250015 12.564151 101.20032 12.564151C 102.696815 12.564151 104.19331 12.969451 105.814514 13.468281C 107.18632 13.873581 108.43341 13.437104 108.71401 12.595331L108.71401 12.595331L107.716354 18.79953C 107.716354 18.67482 106.62515 13.2500305 101.51215 13.2500305C 94.71555 13.2500305 91.84735 19.32953 91.84735 26.31303C 91.84735 33.60843 94.71565 39.34503 101.51215 39.34503zM126.42226 36.1652C 126.42226 39.3452 127.762856 40 127.762856 40C 127.762856 40 126.70286 39.71941 124.48926 39.71941C 122.27566 39.71941 121.21566 40 121.21566 40C 121.21566 40 122.55626 39.34528 122.55626 36.1652L122.55626 36.1652L122.55626 29.7116C 122.55626 28.901 122.836845 24.9104 119.43856 24.9104C 117.19386 24.9104 115.79086 27.2175 115.79086 29.4311L115.79086 29.4311L115.79086 36.165302C 115.79086 39.345303 117.13146 40.000103 117.13146 40.000103C 117.13146 40.000103 116.071465 39.719513 113.857864 39.719513C 111.644264 39.719513 110.58427 40.000103 110.58427 40.000103C 110.58427 40.000103 111.924866 39.345383 111.924866 36.165302L111.924866 36.165302L111.924866 16.305302C 111.924866 13.281101 111.083084 12.626402 110.58427 12.470502C 112.891365 12.470502 115.042564 11.597552 115.790764 10.506402L115.790764 10.506402L115.790764 26.874401C 116.19606 25.6585 117.692566 24.380201 119.407265 24.0373C 123.397865 23.2267 126.422066 25.5026 126.422066 29.275L126.422066 29.275L126.422066 36.1651zM143.97467 36.9447C 143.97467 39.501198 145.03467 40 145.03467 40C 145.03467 40 144.50465 39.78176 141.94817 39.78176C 140.20227 39.78176 139.45396 40 139.45396 40C 139.45396 40 140.10869 39.50117 140.10869 38.0982C 139.85927 38.87762 137.80159 40 135.27629 40C 132.90689 40 130.56859 38.5035 130.56859 35.8846C 130.56859 32.0187 135.80629 31.395102 137.4587 30.958601C 138.5499 30.67801 140.10869 30.241531 140.10869 29.3686L140.10869 29.3686L140.10869 28.68271C 140.10869 27.59151 140.04634 24.34911 136.64809 24.34911C 134.77748 24.34911 132.87569 25.15971 132.93799 27.092709C 132.96916 28.215109 134.2786 27.653889 134.5904 27.653889C 135.5257 27.653889 135.8375 28.215069 135.8375 28.90099C 135.8375 29.61806 135.30748 30.49099 133.9045 30.49099C 133.18742 30.49099 132.1586 29.89863 131.8156 28.838589C 130.97382 26.157389 133.34329 23.787888 137.0221 23.756788C 141.26219 23.72561 143.9746 25.627388 143.9746 30.148088L143.9746 30.148088L143.9746 36.944687zM140.10867 36.2899L140.10867 30.397503C 140.10867 30.522213 139.45395 30.958683 137.77037 31.519903C 135.77507 32.17462 134.37207 33.078705 134.37207 35.791103C 134.37207 39.812904 140.10867 40.187004 140.10867 36.289932zM162.08873 36.9447C 162.08873 39.501198 163.14873 40 163.14873 40C 163.14873 40 162.30695 39.78176 159.75043 39.78176C 158.00453 39.78176 157.56802 40 157.56802 40C 157.56802 40 158.22275 39.25175 158.22275 37.8488C 157.87979 38.846462 156.41444 40 154.54385 40C 151.80025 40 148.30846 39.09587 148.30846 34.7935L148.30846 34.7935L148.30846 28.682798C 148.30846 25.658598 147.46667 25.003899 146.96785 24.847998C 149.27495 24.847998 151.42615 24.286818 152.17435 23.195599L152.17435 23.195599L152.17435 34.6376C 152.17435 38.1918 153.29675 39.4077 154.88675 39.4077C 156.53915 39.4077 158.22266 37.9112 158.22266 36.0406L158.22266 36.0406L158.22266 28.3711C 158.22266 25.346899 157.38087 24.6922 156.88205 24.536299C 159.18915 24.536299 161.34035 23.975119 162.08855 22.8839L162.08855 22.8839L162.08855 36.9449zM182.60349 36.1652C 182.60349 39.3452 183.94409 40 183.94409 40C 183.94409 40 182.8841 39.71941 180.67049 39.71941C 178.45688 39.71941 177.95808 40 177.95808 40C 177.95808 40 178.7375 39.34528 178.7375 37.5994C 178.42574 38.16058 177.3034 39.875298 174.5598 40C 170.1327 40.18706 165.955 37.3188 165.955 31.8628C 165.955 26.5004 170.7251 22.946201 175.5575 23.6009C 177.6464 23.88149 178.457 24.8792 178.73749 25.2533L178.73749 25.2533L178.73749 16.149601C 178.73749 13.125401 177.8957 12.470701 177.39688 12.314801C 179.70398 12.314801 181.88638 10.943001 182.60338 10.038901L182.60338 10.038901L182.60338 36.1649zM178.73749 34.6064L178.73749 27.6539C 178.73749 26.5315 177.7087 24.505001 175.24568 24.2556C 172.50208 23.97501 169.75858 26.625 169.75858 31.9251C 169.75858 36.0093 171.16158 39.314 174.49748 39.314C 177.08517 39.314 178.73758 37.2875 178.73758 34.6063zM202.5875 36.1652C 202.5875 39.3452 203.9281 40 203.9281 40C 203.9281 40 202.8681 39.71941 200.6545 39.71941C 198.44089 39.71941 197.38089 40 197.38089 40C 197.38089 40 198.7215 39.34528 198.7215 36.1652L198.7215 36.1652L198.7215 29.7116C 198.7215 28.901 199.00209 24.9104 195.60379 24.9104C 193.35909 24.9104 191.95609 27.2175 191.95609 29.4311L191.95609 29.4311L191.95609 36.165302C 191.95609 39.345303 193.29669 40.000103 193.29669 40.000103C 193.29669 40.000103 192.2367 39.719513 190.02309 39.719513C 187.80948 39.719513 186.74948 40.000103 186.74948 40.000103C 186.74948 40.000103 188.09009 39.345383 188.09009 36.165302L188.09009 36.165302L188.09009 16.305302C 188.09009 13.281101 187.2483 12.626402 186.74948 12.470502C 189.05658 12.470502 191.20778 11.597552 191.95598 10.506402L191.95598 10.506402L191.95598 26.874401C 192.36128 25.6585 193.85777 24.380201 195.57248 24.0373C 199.56308 23.2267 202.58728 25.5026 202.58728 29.275L202.58728 29.275L202.58728 36.1651zM220.13991 36.9447C 220.13991 39.501198 221.1999 40 221.1999 40C 221.1999 40 220.66989 39.78176 218.1134 39.78176C 216.36751 39.78176 215.6192 40 215.6192 40C 215.6192 40 216.27393 39.50117 216.27393 38.0982C 216.0245 38.87762 213.96683 40 211.44153 40C 209.07213 40 206.73383 38.5035 206.73383 35.8846C 206.73383 32.0187 211.97153 31.395102 213.62393 30.958601C 214.71513 30.67801 216.27393 30.241531 216.27393 29.3686L216.27393 29.3686L216.27393 28.68271C 216.27393 27.59151 216.21158 24.34911 212.81332 24.34911C 210.94272 24.34911 209.04092 25.15971 209.10323 27.092709C 209.1344 28.215109 210.44383 27.653889 210.75563 27.653889C 211.69093 27.653889 212.00273 28.215069 212.00273 28.90099C 212.00273 29.61806 211.47272 30.49099 210.06973 30.49099C 209.35266 30.49099 208.32384 29.89863 207.98083 28.838589C 207.13905 26.157389 209.50853 23.787888 213.18733 23.756788C 217.42743 23.72561 220.13983 25.627388 220.13983 30.148088L220.13983 30.148088L220.13983 36.944687zM216.27391 36.2899L216.27391 30.397503C 216.27391 30.522213 215.61919 30.958683 213.93561 31.519903C 211.9403 32.17462 210.53731 33.078705 210.53731 35.791103C 210.53731 39.812904 216.27391 40.187004 216.27391 36.289932zM236.50793 29.088C 235.10493 29.088 234.57494 27.747398 235.19853 26.749699C 236.28973 25.0038 235.32324 23.974998 233.63972 24.099699C 230.95853 24.31794 229.21263 28.121498 229.21263 33.4216L229.21263 33.4216L229.21263 36.1652C 229.21263 39.3452 230.55324 40 230.55324 40C 230.55324 40 229.49324 39.71941 227.27963 39.71941C 225.06602 39.71941 224.00603 40 224.00603 40C 224.00603 40 225.34663 39.34528 225.34663 36.1652L225.34663 36.1652L225.34663 29.088C 225.34663 26.063799 224.50485 25.4091 224.00603 25.253199C 226.31313 25.253199 228.46432 24.380249 229.21252 23.289099L229.21252 23.289099L229.21252 27.716198C 229.649 26.063797 231.51962 23.600798 233.88902 23.444998C 236.28963 23.289118 238.09792 25.003798 238.31612 26.687397C 238.53436 28.027996 237.63023 29.087997 236.50781 29.087997zM254.55946 24.318C 255.65067 24.318 257.39658 24.130941 257.89536 24.06858C 257.33417 24.162111 255.02705 24.66094 253.96706 27.34218C 253.34352 28.93218 251.78465 33.54638 250.13226 38.12918C 248.91637 41.46508 247.70047 44.80108 246.32866 46.952282C 244.92566 49.13468 242.89915 50.537582 240.96626 50.44408C 239.90627 50.381725 238.65916 49.69583 238.65916 48.44878C 238.65916 47.607 239.22034 46.79638 240.18686 46.79638C 241.52747 46.79638 241.43396 48.35518 242.71216 48.35518C 245.51805 48.35518 247.70045 44.14628 247.73166 39.81268C 247.76283 36.69498 246.20396 33.42138 245.14395 31.23898C 244.02155 28.931879 242.89925 26.87418 242.89925 26.87418C 242.18217 25.50238 241.21565 24.41118 240.59215 24.06828C 240.74803 24.099457 242.15096 24.34887 244.14635 24.34887C 245.64285 24.34887 247.07695 24.16181 247.63815 24.06828C 246.79637 24.41123 246.39105 25.28418 246.82756 26.46888L246.82756 26.46888L250.56876 34.63728C 250.56876 34.63728 252.62645 28.99428 253.03175 27.40428C 253.46823 25.65838 252.06528 24.28658 251.09875 24.06838C 251.09875 24.06838 253.12526 24.3178 254.55936 24.3178z" stroke="none" fill="#215B67" fill-rule="nonzero" />
</g>
</svg>