<?xml version="1.0" standalone="no"?>
<!DOCTYPE svg PUBLIC "-//W3C//DTD SVG 1.0//EN" "http://www.w3.org/TR/2001/REC-SVG-20010904/DTD/svg10.dtd">
<svg xmlns="http://www.w3.org/2000/svg" xmlns:xlink="http://www.w3.org/1999/xlink" id="body_1" width="221" height="81">

<g transform="matrix(0.07000317 0 0 0.06988783 0 0)">
	<g transform="matrix(7.833747 0 0 7.831081 78.33746 78.31081)">
	</g>
    <path transform="matrix(7.833747 0 0 7.831081 78.33746 78.31081)"  d="M0 0L383 0L383 128L0 128L0 0zM4 4L4 124L379 124L379 4z" stroke="none" fill="#933333" fill-rule="nonzero" />
	<g transform="matrix(16.566488 0 0 16.56085 185.94907 325.1955)">
	</g>
    <path transform="matrix(16.566488 0 0 16.56085 185.94907 325.1955)"  d="M1.543 20L1.543 5.967L3.6524 5.967C 5.4102 5.9767656 6.8555 7.4318 6.8555 9.1994C 6.8555 10.2248 6.3672204 11.1623 5.5762005 11.7775C 7.6758003 11.96305 9.316401 13.7404 9.316401 15.879101C 9.316401 18.135 7.4902005 19.970901 5.2344007 20.0002L5.2344007 20.0002L1.5430007 20.0002L1.543 20zM2.2168 11.7578L3.6523 11.7578C 5.0488 11.7480345 6.1815996 10.5957 6.1815996 9.1992C 6.1815996 7.802699 5.0389996 6.6601 3.6424997 6.6503997L3.6424997 6.6503997L2.2166996 6.6503997L2.2166996 11.757799zM2.2168 12.4316L2.2168 19.3261L5.2246 19.3261C 7.1094 19.296803 8.6426 17.7538 8.6426 15.878799C 8.6426 13.9939995 7.1094 12.441299 5.2246 12.4314995L5.2246 12.4314995L2.2167997 12.4314995zM13.299849 5.986L13.973679 5.986L13.973679 20L13.299849 20L13.299849 5.986zM20.564487 20.06836C 19.158188 20.06836 17.859386 19.23828 17.273487 17.95896L17.273487 17.95896L17.898487 17.665989C 18.367237 18.710888 19.421886 19.384789 20.564487 19.384789C 22.175787 19.384789 23.494186 18.076189 23.503988 16.474588L23.503988 16.474588L23.503988 5.917588L24.187578 5.917588L24.187578 16.474588C 24.177813 18.45699 22.546978 20.068388 20.564579 20.068388zM32.174805 5.928L36.842804 20L36.120144 20L35.319363 17.4316L29.069363 17.4316L28.288113 20L27.575222 20L32.145523 5.9280005L32.17482 5.9280005zM29.342804 16.7578L35.036205 16.7578L32.155304 7.9589987zM49.683205 5.986L45.161705 14.472301L45.161705 19.9996L44.478115 19.9996L44.478115 14.4723L39.829716 5.985999L40.591434 5.985999L44.819935 13.6227L48.931236 5.9859996L49.683186 5.9859996zM67.0547 20.10742C 65.1211 20.10742 63.324203 19.3457 62.015602 18.02732C 60.7168 16.718721 59.9355 14.931621 59.9355 12.99802C 59.9355 11.074221 60.69722 9.28712 62.015602 7.9785204C 63.333984 6.669921 65.1211 5.8984203 67.0547 5.8984203C 67.52345 5.8984203 68.001976 5.9472485 68.4707 6.0449004L68.4707 6.0449004L68.34375 6.7187304C 67.91406 6.6308393 67.48437 6.5820103 67.05465 6.5820103C 65.30665 6.5820103 63.705048 7.2656 62.50385 8.46681C 61.31245 9.658211 60.62885 11.26951 60.62885 12.99811C 60.62885 14.73641 61.302677 16.35751 62.50385 17.54891C 63.70502 18.74031 65.30655 19.42391 67.05465 19.42391C 67.48434 19.42391 67.92379 19.375082 68.36325 19.28719L68.36325 19.28719L68.49997 19.96102C 68.03122 20.058676 67.54294 20.1075 67.05467 20.1075zM80.67674 5.986L80.67674 20.039001L79.99315 20.039001L79.99315 14.394502L73.45015 14.394502L73.45015 20.000002L72.77632 20.000002L72.77632 5.986002L73.45015 5.986002L73.45015 13.710602L79.99315 13.710602L79.99315 5.986002L80.67674 5.986002zM88.83984 5.928L93.50784 20L92.78519 20L91.984406 17.4316L85.734406 17.4316L84.953156 20L84.240265 20L88.81056 5.9280005L88.83986 5.9280005zM86.00784 16.7578L91.70124 16.7578L88.82034 7.9589987zM101.377945 20C 99.14165 20 97.315445 18.1738 97.315445 15.9375L97.315445 15.9375L97.315445 5.9863005L97.98927 5.9863005L97.98927 15.9375C 97.98927 17.8125 99.502975 19.3262 101.377975 19.3262C 103.24318 19.3262 104.756874 17.8125 104.756874 15.9375L104.756874 15.9375L104.756874 5.9863005L105.4307 5.9863005L105.4307 15.9375C 105.4307 18.1738 103.6143 20 101.378006 20zM110.10745 20L110.10745 5.986L111.53325 5.986C 113.40825 6.015297 115.15625 6.78678 116.44535 8.0758C 117.72465 9.374599 118.476654 11.1227 118.476654 12.9879C 118.476654 14.8531 117.7247 16.5914 116.46495 17.8805C 115.18565 19.1793 113.45715 19.960602 111.59195 19.999601L111.59195 19.999601L110.10755 19.999601zM110.78125 19.32617L111.57227 19.32617C 113.26177 19.287107 114.83398 18.58398 115.97657 17.41207C 117.11916 16.240158 117.80277 14.667969 117.80277 12.98827C 117.80277 11.308571 117.128944 9.71677 115.96687 8.55467C 114.794975 7.3827705 113.232475 6.6894703 111.523476 6.6601706L111.523476 6.6601706L110.78129 6.6601706L110.78129 19.326172zM130.44823 5.986L130.44823 20.039001L129.76463 20.039001L129.76463 14.394502L123.221634 14.394502L123.221634 20.000002L122.547806 20.000002L122.547806 5.986002L123.221634 5.986002L123.221634 13.710602L129.76463 13.710602L129.76463 5.986002L130.44823 5.986002zM138.61133 5.928L143.27933 20L142.55667 20L141.75589 17.4316L135.50589 17.4316L134.72464 20L134.01175 20L138.58205 5.9280005L138.61134 5.9280005zM135.77933 16.7578L141.47273 16.7578L138.59183 7.9589987zM153.04393 20L150.42673 15.5273C 149.95798 15.68355 149.47946 15.76168 148.99123 15.77144L148.99123 15.77144L147.84863 15.781205L147.84863 20.000006L147.16504 20.000006L147.16504 5.986006L148.89354 5.986006C 151.59863 5.986006 153.79584 8.183306 153.79584 10.878606C 153.79584 12.763406 152.70204 14.443106 151.05174 15.263406L151.05174 15.263406L153.83495 19.999706L153.04393 19.999706zM148.98143 15.0977C 151.25684 15.058637 153.11234 13.173901 153.11234 10.878901C 153.11234 8.564401 151.22754 6.6699004 148.89354 6.6699004L148.89354 6.6699004L147.84863 6.6699004L147.84863 15.097601L148.98143 15.097601zM167.04648 5.986L162.52498 14.472301L162.52498 19.9996L161.84138 19.9996L161.84138 14.4723L157.19298 5.985999L157.9547 5.985999L162.1832 13.6227L166.2945 5.9859996L167.04645 5.9859996z" stroke="none" fill="#FFFFFF" fill-rule="nonzero" />
	<g transform="matrix(7.442059 0 0 7.439526 211.51114 736.1216)">
	</g>
    <path transform="matrix(7.442059 0 0 7.439526 211.51114 736.1216)"  d="" stroke="none" fill="#FFFFFF" fill-rule="nonzero" />
</g>
</svg>